<?xml version="1.0" encoding="UTF-8" standalone="no"?>
<!-- Created with Inkscape (http://www.inkscape.org/) -->
<svg
   xmlns:svg="http://www.w3.org/2000/svg"
   xmlns="http://www.w3.org/2000/svg"
   version="1.0"
   width="562"
   height="148"
   id="svg2">
  <defs
     id="defs4" />
  <g
     transform="translate(-157.38617,-127.14232)"
     id="layer1">
    <path
       d="M 157.87445,272.54466 L 157.87445,146.40404 L 188.88226,146.40404 L 188.88226,151.8181 L 168.42133,151.8181 L 168.42133,266.98997 L 188.88226,266.98997 L 188.88226,272.54466 L 157.87445,272.54466 z M 258.21039,234.71654 C 252.91345,241.70091 247.78065,245.1931 242.81195,245.1931 C 241.78065,245.1931 240.808,245.02904 239.89398,244.70091 C 238.97987,244.37279 238.183,243.81029 237.50336,243.01341 C 236.82363,242.21654 236.28456,241.15013 235.88617,239.81419 C 235.48769,238.47826 235.28847,236.77904 235.28851,234.71654 C 232.47598,236.91967 230.14395,238.71264 228.29242,240.09544 C 226.44082,241.47826 224.8002,242.54466 223.37054,243.29466 C 221.94083,244.04466 220.58146,244.54857 219.29242,244.80638 C 218.00333,245.06419 216.51505,245.1931 214.82758,245.1931 C 212.53068,245.1931 210.44475,244.80638 208.56976,244.03294 C 206.69475,243.25951 205.07756,242.15795 203.7182,240.72826 C 202.35882,239.29857 201.30413,237.5642 200.55414,235.52513 C 199.80413,233.48608 199.42913,231.22436 199.42914,228.73997 C 199.42913,226.34937 199.86273,224.07593 200.72992,221.91966 C 201.5971,219.76344 203.31975,217.59547 205.89789,215.41576 C 208.476,213.2361 212.10881,210.99782 216.79633,208.70091 C 221.4838,206.40408 227.64785,203.94314 235.28851,201.3181 L 235.28851,198.64622 C 235.28847,195.55252 235.04238,192.95096 234.55023,190.84154 C 234.058,188.73222 233.31972,187.00956 232.33539,185.67357 C 231.35098,184.33769 230.10879,183.37675 228.60883,182.79076 C 227.10879,182.20488 225.32754,181.91191 223.26508,181.91185 C 220.31192,181.91191 217.99161,182.67363 216.30414,184.19701 C 214.61662,185.7205 213.70256,187.58378 213.56195,189.78685 L 213.70258,194.0056 C 213.79631,196.02127 213.2924,197.62674 212.19086,198.82201 C 211.08928,200.01736 209.64787,200.61502 207.86664,200.61497 C 205.99163,200.61502 204.5385,200.01736 203.50726,198.82201 C 202.47601,197.62674 201.96038,195.9744 201.96039,193.86497 C 201.96038,191.33378 202.60491,189.07206 203.89398,187.07982 C 205.18303,185.08769 206.91741,183.40019 209.09711,182.01732 C 211.27678,180.63457 213.78459,179.57988 216.62054,178.85326 C 219.45646,178.12676 222.4213,177.76348 225.51508,177.76341 C 230.15566,177.76348 233.89394,178.26738 236.72992,179.27513 C 239.56581,180.28301 241.75722,181.73613 243.30414,183.63451 C 244.85096,185.533 245.87049,187.84159 246.36273,190.56029 C 246.85487,193.27909 247.10096,196.32596 247.10101,199.70091 L 247.10101,221.63841 C 247.10096,224.63843 247.14784,227.09937 247.24164,229.02122 C 247.33534,230.94311 247.40565,232.23217 247.45258,232.88841 C 247.6869,234.15405 248.03846,235.04467 248.50726,235.56029 C 248.97596,236.07592 249.65565,236.33373 250.54633,236.33372 C 250.96814,236.33373 251.36658,236.27514 251.74164,236.15794 C 252.11658,236.04076 252.56189,235.79467 253.07758,235.41966 C 253.59314,235.04467 254.24939,234.48217 255.04633,233.73216 C 255.84314,232.98217 256.89783,231.95092 258.21039,230.63841 L 258.21039,234.71654 z M 235.28851,205.46654 C 229.85098,207.57595 225.5502,209.50954 222.38617,211.26732 C 219.22208,213.02516 216.81974,214.70094 215.17914,216.29466 C 213.53849,217.88844 212.49553,219.42359 212.05023,220.90013 C 211.6049,222.37672 211.38225,223.88843 211.38226,225.43529 C 211.38225,227.1228 211.64006,228.66968 212.1557,230.07591 C 212.67131,231.48217 213.36271,232.71264 214.22992,233.76732 C 215.09709,234.82202 216.12834,235.65405 217.32367,236.26341 C 218.51896,236.87279 219.7963,237.20092 221.1557,237.24779 C 222.9838,237.34154 225.05801,236.77904 227.37836,235.56029 C 229.69863,234.34155 232.33535,232.53686 235.28851,230.14622 L 235.28851,205.46654 z M 263.27289,243.99779 L 263.27289,241.32591 C 265.61663,241.32592 267.36272,241.17357 268.51117,240.86888 C 269.6596,240.5642 270.56194,239.98998 271.2182,239.14622 C 271.49944,238.72436 271.75725,238.26732 271.99164,237.77513 C 272.226,237.28295 272.42522,236.67358 272.58929,235.94701 C 272.75334,235.22045 272.88225,234.32983 272.97601,233.27513 C 273.06975,232.22046 273.11662,230.94311 273.11664,229.4431 L 273.11664,194.14622 C 273.11662,191.2869 272.99944,189.14237 272.76508,187.71263 C 272.53069,186.283 272.10881,185.2166 271.49945,184.51341 C 271.03069,183.99785 270.58538,183.58769 270.16351,183.28294 C 269.74163,182.97832 269.226,182.74394 268.61664,182.57982 C 268.00725,182.41582 267.28069,182.31035 266.43695,182.26341 C 265.59319,182.2166 264.53851,182.19316 263.27289,182.1931 L 263.27289,179.59154 L 294.77289,179.59154 L 294.77289,182.1931 C 292.38223,182.19316 290.6127,182.35722 289.46429,182.68529 C 288.31583,183.01347 287.43692,183.57597 286.82758,184.37279 C 286.5463,184.79472 286.27677,185.26347 286.01898,185.77904 C 285.76114,186.29472 285.5502,186.91581 285.38617,187.64232 C 285.22208,188.36894 285.09317,189.25956 284.99945,190.31419 C 284.90567,191.36893 284.8588,192.64628 284.85883,194.14622 L 284.85883,229.4431 C 284.8588,232.30249 284.97599,234.44702 285.21039,235.87669 C 285.44474,237.30639 285.89005,238.34936 286.54633,239.0056 C 286.96817,239.52123 287.40177,239.93139 287.84711,240.23607 C 288.29239,240.54076 288.80801,240.77513 289.39398,240.93919 C 289.97989,241.10326 290.70645,241.20873 291.57367,241.2556 C 292.44082,241.30248 293.50723,241.32592 294.77289,241.32591 L 294.77289,243.99779 L 263.27289,243.99779 z M 407.20258,209.33372 C 407.20251,214.39625 406.48767,219.15406 405.05804,223.60716 C 403.62829,228.0603 401.61267,231.96264 399.01117,235.31419 C 396.40955,238.66576 393.30408,241.30248 389.69476,243.22435 C 386.08534,245.14622 382.07753,246.10716 377.67133,246.10716 C 376.64004,246.10716 375.53848,246.06029 374.36664,245.96654 C 373.19473,245.87279 371.97598,245.62669 370.71039,245.22826 C 369.44473,244.82982 368.1088,244.24388 366.70258,243.47044 C 365.2963,242.69701 363.84318,241.6306 362.3432,240.27122 L 362.3432,259.74779 C 362.34318,262.27902 362.42521,264.34152 362.58929,265.93529 C 362.75333,267.52901 363.19865,268.78292 363.92523,269.69701 C 364.65177,270.61104 365.75333,271.24385 367.22992,271.59544 C 368.70645,271.94698 370.73379,272.16963 373.31195,272.26341 L 373.31195,274.93529 L 339.14008,274.93529 L 339.14008,272.26341 C 341.76507,272.16963 343.82757,271.9587 345.32758,271.6306 C 346.82757,271.30245 347.95257,270.68135 348.70258,269.76732 C 349.45257,268.85323 349.92132,267.57589 350.10883,265.93529 C 350.29632,264.29464 350.39007,262.13839 350.39008,259.46654 L 350.39008,198.5056 C 350.39007,196.7244 350.37835,195.25955 350.35492,194.11107 C 350.33147,192.96268 350.24944,192.00175 350.10883,191.22826 C 349.96819,190.45487 349.73382,189.83378 349.4057,189.36497 C 349.07757,188.89628 348.63225,188.45097 348.06976,188.02904 C 347.31976,187.51347 346.37054,187.2205 345.22211,187.15013 C 344.07367,187.07988 342.4682,187.46659 340.4057,188.31029 L 339.56195,185.91966 L 359.67133,177.90404 L 362.3432,177.90404 L 362.3432,192.95091 C 363.9838,190.13847 365.62443,187.75956 367.26508,185.81419 C 368.90567,183.86894 370.56973,182.29863 372.25726,181.10326 C 373.94473,179.90801 375.6791,179.05254 377.46039,178.53685 C 379.2416,178.02129 381.1166,177.76348 383.08539,177.76341 C 386.64784,177.76348 389.90565,178.57207 392.85883,180.18919 C 395.81189,181.80644 398.35486,184.033 400.48773,186.86888 C 402.62048,189.70487 404.27282,193.04471 405.44476,196.88841 C 406.61657,200.73221 407.20251,204.88064 407.20258,209.33372 L 407.20258,209.33372 z M 395.95258,216.01341 C 395.95252,210.81032 395.46033,206.33376 394.47601,202.58372 C 393.49158,198.83377 392.15565,195.76346 390.4682,193.37279 C 388.78065,190.98222 386.8119,189.21269 384.56195,188.06419 C 382.31191,186.91581 379.92129,186.3416 377.39008,186.34154 C 375.98379,186.3416 374.68301,186.61113 373.48773,187.15013 C 372.29239,187.68925 371.10879,188.43925 369.93695,189.40013 C 368.76505,190.36112 367.56974,191.49784 366.35101,192.81029 C 365.13224,194.12284 363.7963,195.57596 362.3432,197.16966 L 362.3432,221.28685 C 362.34318,226.30249 362.55412,229.72436 362.97601,231.55247 C 363.30411,232.77124 363.84318,233.98998 364.5932,235.20872 C 365.34318,236.42748 366.32755,237.51733 367.54633,238.47826 C 368.76505,239.4392 370.19473,240.22435 371.83539,240.83372 C 373.47598,241.4431 375.32754,241.74779 377.39008,241.74779 C 380.15566,241.74779 382.67519,241.15013 384.94867,239.95482 C 387.22206,238.75951 389.16737,237.06029 390.78461,234.85716 C 392.40174,232.65405 393.66737,229.95874 394.58148,226.77122 C 395.49549,223.58375 395.95252,219.99781 395.95258,216.01341 L 395.95258,216.01341 z M 440.95258,187.32591 L 440.95258,185.77904 C 441.84317,185.82597 442.71036,185.80253 443.55414,185.70872 C 444.25723,185.61503 444.93692,185.48613 445.5932,185.32201 C 446.24942,185.158 446.76504,184.88847 447.14008,184.51341 C 447.42129,184.18535 447.65567,183.86894 447.8432,183.56419 C 448.03066,183.25957 448.17129,182.89629 448.26508,182.47435 C 448.35879,182.05254 448.41738,181.53691 448.44086,180.92747 C 448.46426,180.31816 448.47598,179.52129 448.47601,178.53685 L 448.47601,165.03685 C 448.47598,163.77131 448.46426,162.42365 448.44086,160.99388 C 448.41738,159.56428 448.19473,158.22834 447.77289,156.98607 C 447.35098,155.74397 446.6127,154.71272 445.55804,153.89232 C 444.50332,153.0721 442.96817,152.66194 440.95258,152.66185 C 440.20255,152.66194 439.41739,152.72054 438.59711,152.83763 C 437.77677,152.95491 436.89786,153.21272 435.96039,153.61107 C 435.02287,154.0096 434.01505,154.5721 432.93695,155.29857 C 431.85881,156.02522 430.68693,156.99787 429.42133,158.21654 L 429.42133,178.53685 C 429.42131,179.52129 429.43303,180.31816 429.45648,180.92747 C 429.4799,181.53691 429.5385,182.05254 429.63226,182.47435 C 429.726,182.89629 429.86662,183.25957 430.05414,183.56419 C 430.24162,183.86894 430.52287,184.18535 430.89789,184.51341 C 431.36662,185.0291 432.04631,185.36894 432.93695,185.53294 C 433.82755,185.69706 435.16349,185.7791 436.94476,185.77904 L 436.94476,187.32591 L 413.95258,187.32591 L 413.95258,185.77904 C 415.31195,185.7791 416.46038,185.67363 417.39789,185.46263 C 418.33538,185.25175 419.13226,184.8416 419.78851,184.23216 C 420.16351,183.99785 420.45647,183.4705 420.66742,182.65013 C 420.87835,181.82988 420.98382,180.45879 420.98383,178.53685 L 420.98383,143.52122 C 420.98382,141.41195 420.96038,139.73617 420.91351,138.49388 C 420.86663,137.2518 420.7846,136.29086 420.66742,135.61107 C 420.55022,134.93149 420.39788,134.45102 420.21039,134.16966 C 420.02288,133.88852 419.78851,133.63071 419.50726,133.39622 C 419.17913,133.16196 418.54632,132.96274 417.60883,132.79857 C 416.67132,132.63462 415.45257,132.83384 413.95258,133.39622 L 413.03851,131.84935 L 427.10101,127.34935 L 429.42133,127.34935 L 429.42133,155.54466 C 431.15568,153.951 432.71427,152.6385 434.09711,151.60716 C 435.4799,150.57601 436.75724,149.75569 437.92914,149.14622 C 439.10099,148.53695 440.2377,148.12679 441.33929,147.91576 C 442.44083,147.70492 443.60098,147.59945 444.81976,147.59935 C 447.77285,147.59945 450.05801,148.15023 451.67523,149.25169 C 453.29238,150.35335 454.48769,151.74788 455.26117,153.43529 C 456.03456,155.12288 456.50331,156.99787 456.66742,159.06029 C 456.83144,161.12287 456.91347,163.11506 456.91351,165.03685 L 456.91351,178.53685 C 456.91347,180.17754 456.9955,181.43144 457.15961,182.29857 C 457.32362,183.16582 457.64003,183.9041 458.10883,184.51341 C 458.39003,184.88847 458.96425,185.19316 459.83148,185.42747 C 460.69862,185.66191 462.02284,185.7791 463.80414,185.77904 L 463.80414,187.32591 L 440.95258,187.32591 z M 494.5307,157.65404 C 494.53067,159.66975 493.8627,161.38068 492.52679,162.78685 C 491.19083,164.19318 489.49161,164.8963 487.42914,164.89622 C 485.36662,164.8963 483.65568,164.21662 482.29633,162.85716 C 480.93694,161.49787 480.25725,159.7635 480.25726,157.65404 C 480.25725,156.62287 480.44475,155.67366 480.81976,154.80638 C 481.19475,153.93928 481.71037,153.201 482.36664,152.59154 C 483.02287,151.98225 483.78459,151.50179 484.65179,151.15013 C 485.51896,150.79866 486.44474,150.62288 487.42914,150.62279 C 488.41349,150.62288 489.33927,150.81038 490.20648,151.18529 C 491.07364,151.56038 491.82364,152.06429 492.45648,152.69701 C 493.08927,153.32991 493.59317,154.06819 493.9682,154.91185 C 494.34317,155.75569 494.53067,156.66975 494.5307,157.65404 L 494.5307,157.65404 z M 471.67914,243.99779 L 471.67914,241.32591 C 473.69476,241.32592 475.3471,241.18529 476.63617,240.90404 C 477.92522,240.62279 478.93303,240.09545 479.65961,239.32201 C 480.38616,238.54857 480.87834,237.47045 481.13617,236.08763 C 481.39397,234.70483 481.52287,232.9353 481.52289,230.77904 L 481.52289,196.32591 C 481.52287,193.23221 481.18303,190.88847 480.50336,189.29466 C 479.82366,187.70097 478.54631,186.90409 476.67133,186.90404 C 476.01507,186.90409 475.2885,186.99784 474.49164,187.18529 C 473.69476,187.37284 472.75726,187.65409 471.67914,188.02904 L 470.76508,185.49779 L 490.24164,177.76341 L 493.26508,177.76341 L 493.26508,230.77904 C 493.26505,232.9353 493.40567,234.70483 493.68695,236.08763 C 493.96817,237.47045 494.47208,238.54857 495.19867,239.32201 C 495.9252,240.09545 496.93301,240.62279 498.22211,240.90404 C 499.51114,241.18529 501.16348,241.32592 503.17914,241.32591 L 503.17914,243.99779 L 471.67914,243.99779 z M 512.31976,243.99779 L 518.78851,221.91966 L 525.4682,221.91966 L 531.86664,243.99779 L 512.31976,243.99779 z M 525.4682,201.59935 L 518.78851,201.59935 L 512.31976,179.59154 L 531.86664,179.59154 L 525.4682,201.59935 z M 638.10883,220.4431 C 637.64002,223.58375 636.67908,226.68921 635.22601,229.75951 C 633.77283,232.82983 631.92127,235.57201 629.67133,237.98607 C 627.42128,240.40013 624.77284,242.35716 621.72601,243.85716 C 618.6791,245.35716 615.3041,246.10716 611.60101,246.10716 C 607.80411,246.10716 604.19474,245.322 600.77289,243.75169 C 597.35099,242.18138 594.36272,239.93139 591.80804,237.00169 C 589.25335,234.07202 587.226,230.53296 585.72601,226.38451 C 584.22601,222.23609 583.47601,217.60719 583.47601,212.49779 C 583.47601,207.06032 584.21429,202.18533 585.69086,197.87279 C 587.16741,193.56034 589.22991,189.90409 591.87836,186.90404 C 594.52678,183.9041 597.67912,181.60722 601.33539,180.01341 C 604.99161,178.41973 608.99942,177.62285 613.35883,177.62279 C 616.92129,177.62285 620.21425,178.22051 623.23773,179.41576 C 626.26112,180.61113 628.8744,182.33379 631.07758,184.58372 C 633.28065,186.83378 635.0033,189.57597 636.24554,192.81029 C 637.48767,196.04471 638.10877,199.70096 638.10883,203.77904 L 593.46039,203.77904 C 593.46037,208.56032 594.09318,212.84938 595.35883,216.64622 C 596.62443,220.44312 598.33537,223.65406 600.49164,226.27904 C 602.64786,228.90405 605.14395,230.90796 607.97992,232.29076 C 610.81582,233.67358 613.8041,234.38842 616.94476,234.43529 C 619.0541,234.48217 621.01113,234.25952 622.81586,233.76732 C 624.6205,233.27514 626.29628,232.43139 627.8432,231.23607 C 629.39002,230.04077 630.83143,228.44702 632.16742,226.45482 C 633.5033,224.46265 634.73377,221.99 635.85883,219.03685 L 638.10883,220.4431 z M 623.41351,199.84154 C 623.41347,196.27909 622.89784,193.38456 621.86664,191.15794 C 620.83535,188.93144 619.59316,187.18534 618.14008,185.91966 C 616.68691,184.6541 615.16348,183.78691 613.56976,183.3181 C 611.97598,182.84941 610.59317,182.61504 609.42133,182.61497 C 607.5463,182.61504 605.70645,182.99004 603.90179,183.73997 C 602.09708,184.49003 600.46818,185.5916 599.01508,187.04466 C 597.56193,188.49784 596.34318,190.30253 595.35883,192.45872 C 594.37443,194.61502 593.74162,197.07596 593.46039,199.84154 L 623.41351,199.84154 z M 647.46039,243.99779 L 647.46039,241.32591 C 649.80413,241.32592 651.55022,241.17357 652.69867,240.86888 C 653.8471,240.5642 654.74944,239.98998 655.4057,239.14622 C 655.68694,238.72436 655.94475,238.26732 656.17914,237.77513 C 656.4135,237.28295 656.61272,236.67358 656.77679,235.94701 C 656.94084,235.22045 657.06975,234.32983 657.16351,233.27513 C 657.25725,232.22046 657.30412,230.94311 657.30414,229.4431 L 657.30414,194.14622 C 657.30412,191.2869 657.18694,189.14237 656.95258,187.71263 C 656.71819,186.283 656.29631,185.2166 655.68695,184.51341 C 655.21819,183.99785 654.77288,183.58769 654.35101,183.28294 C 653.92913,182.97832 653.4135,182.74394 652.80414,182.57982 C 652.19475,182.41582 651.46819,182.31035 650.62445,182.26341 C 649.78069,182.2166 648.72601,182.19316 647.46039,182.1931 L 647.46039,179.59154 L 678.96039,179.59154 L 678.96039,182.1931 C 676.56973,182.19316 674.8002,182.35722 673.65179,182.68529 C 672.50333,183.01347 671.62442,183.57597 671.01508,184.37279 C 670.7338,184.79472 670.46427,185.26347 670.20648,185.77904 C 669.94864,186.29472 669.7377,186.91581 669.57367,187.64232 C 669.40958,188.36894 669.28067,189.25956 669.18695,190.31419 C 669.09317,191.36893 669.0463,192.64628 669.04633,194.14622 L 669.04633,229.4431 C 669.0463,232.30249 669.16349,234.44702 669.39789,235.87669 C 669.63224,237.30639 670.07755,238.34936 670.73383,239.0056 C 671.15567,239.52123 671.58927,239.93139 672.03461,240.23607 C 672.47989,240.54076 672.99551,240.77513 673.58148,240.93919 C 674.16739,241.10326 674.89395,241.20873 675.76117,241.2556 C 676.62832,241.30248 677.69473,241.32592 678.96039,241.32591 L 678.96039,243.99779 L 647.46039,243.99779 z M 687.96039,272.68529 L 687.96039,266.98997 L 708.35101,266.98997 L 708.35101,151.8181 L 687.96039,151.8181 L 687.96039,146.40404 L 718.89789,146.40404 L 718.89789,272.68529 L 687.96039,272.68529 z "
       style="font-size:144px;font-style:normal;font-weight:normal;fill:#000000;fill-opacity:1;stroke:none;stroke-width:1px;stroke-linecap:butt;stroke-linejoin:miter;stroke-opacity:1;font-family:Doulos SIL"
       id="text2160" />
  </g>
</svg>
