<?xml version="1.0" encoding="UTF-8" standalone="no"?>
<!-- Created with Inkscape (http://www.inkscape.org/) -->

<svg
   xmlns:dc="http://purl.org/dc/elements/1.1/"
   xmlns:cc="http://creativecommons.org/ns#"
   xmlns:rdf="http://www.w3.org/1999/02/22-rdf-syntax-ns#"
   xmlns:svg="http://www.w3.org/2000/svg"
   xmlns="http://www.w3.org/2000/svg"
   xmlns:xlink="http://www.w3.org/1999/xlink"
   xmlns:sodipodi="http://sodipodi.sourceforge.net/DTD/sodipodi-0.dtd"
   xmlns:inkscape="http://www.inkscape.org/namespaces/inkscape"
   version="1.0"
   width="43.820065"
   height="30.887508"
   id="svg2"
   inkscape:version="0.48.4 r9939"
   sodipodi:docname="Wiki letter W cropped.svg">
  <metadata
     id="metadata3033">
    <rdf:RDF>
      <cc:Work
         rdf:about="">
        <dc:format>image/svg+xml</dc:format>
        <dc:type
           rdf:resource="http://purl.org/dc/dcmitype/StillImage" />
      </cc:Work>
    </rdf:RDF>
  </metadata>
  <sodipodi:namedview
     pagecolor="#ffffff"
     bordercolor="#666666"
     borderopacity="1"
     objecttolerance="10"
     gridtolerance="10"
     guidetolerance="10"
     inkscape:pageopacity="0"
     inkscape:pageshadow="2"
     inkscape:window-width="1301"
     inkscape:window-height="744"
     id="namedview3031"
     showgrid="false"
     inkscape:zoom="12.5"
     inkscape:cx="21.821728"
     inkscape:cy="9.5773365"
     inkscape:window-x="65"
     inkscape:window-y="24"
     inkscape:window-maximized="1"
     inkscape:current-layer="g3026"
     fit-margin-top="0"
     fit-margin-left="0"
     fit-margin-right="0"
     fit-margin-bottom="0" />
  <defs
     id="defs4">
    <linearGradient
       id="linearGradient2779">
      <stop
         style="stop-color:#bbb;stop-opacity:1"
         offset="0"
         id="stop2781" />
      <stop
         style="stop-color:#f4f4f4;stop-opacity:1"
         offset="1"
         id="stop2783" />
    </linearGradient>
    <linearGradient
       x1="47.76152"
       y1="18.860083"
       x2="10.598763"
       y2="26.461481"
       id="linearGradient2785"
       xlink:href="#linearGradient2779"
       gradientUnits="userSpaceOnUse"
       gradientTransform="translate(-6.982678,2.828423)" />
    <linearGradient
       x1="47.76152"
       y1="18.860083"
       x2="10.598763"
       y2="26.461481"
       id="linearGradient1889"
       xlink:href="#linearGradient2779"
       gradientUnits="userSpaceOnUse"
       gradientTransform="translate(-6.982678,2.828423)" />
  </defs>
  <g
     id="g3063"
     transform="translate(-0.08920559,-6.5562191)">
    <g
       id="g3026">
      <g
         id="g3035">
        <g
           id="g3036">
          <g
             style="display:inline"
             id="layer1"
             transform="translate(-2.241522,-9.252902)">
            <g
               id="g1884"
               transform="translate(0.08906571,6.559187)">
              <path
                 d="m 12.60406,33.140217 c 1.448219,5.358355 1.018045,6.99805 7.406335,6.366123 6.038263,-0.597301 8.646644,-3.597889 5.572737,-5.295537 -3.14141,-1.734929 -0.281406,-3.426817 1.652661,-4.145393 1.934067,-0.718576 4.445625,-1.500777 5.967511,-0.471754 1.521886,1.029023 -1.589147,2.763753 0.09193,4.747016 1.702773,2.00886 8.784655,-1.91781 11.212733,-3.17572 2.358125,-1.221669 0.240965,-4.811414 -1.273961,-7.331797 -1.553772,-2.585011 -3.533748,-2.776121 -5.044916,-0.671375 -1.4696,2.04685 -2.957045,1.034169 -4.038466,-1.6336 -1.050722,-2.592037 0.415412,-3.420225 2.305954,-2.351862 1.890542,1.068362 5.338094,-0.186655 1.823861,-5.466053 -3.554898,-5.3404868 -3.462023,-0.514148 -9.348182,0.0075 -5.973864,0.529378 0.140725,-5.3540758 -8.767694,-3.656052 -8.823115,1.681764 2.943719,5.338317 -3.169004,6.109272 -6.199718,0.781928 -10.2606416,0.525109 -8.149791,2.739557 2.069242,2.1708 3.087078,5.232478 1.0590408,6.262719 -2.0280364,1.030241 -8.3340895,-2.815756 -6.9726015,4.692551 1.3585852,7.492302 8.2294787,-2.06228 9.6718527,3.274448 z"
                 style="fill:url(#linearGradient1889);fill-opacity:1;fill-rule:evenodd;stroke:#555753;stroke-width:1;stroke-linecap:butt;stroke-linejoin:miter;stroke-miterlimit:4;stroke-opacity:1;stroke-dasharray:none"
                 id="path1882"
                 inkscape:connector-curvature="0" />
              <path
                 d="m 22.84559,10.166053 c -0.683419,0.0026 -1.5583,0.140816 -2.65625,0.3125 -8.120423,1.266317 2.789073,5.017164 -2.452934,5.924556 -6.037322,1.040674 -10.7104314,0.538398 -8.6408162,2.700444 2.0288172,2.119432 3.7245802,4.997397 0.9218752,6.53125 -2.0160183,1.103318 -8.022391,-2.736883 -6.7031252,4.15625 0.4212012,2.195778 1.4293546,2.68113 2.359375,2.5625 -0.6294047,-0.372311 -1.1192209,-0.790817 -1.390625,-2.28125 -1.3348908,-7.330633 3.3196403,-2.359336 6.2768082,-3.771447 2.010854,-0.960226 2.360004,-4.398874 0.331187,-6.518305 -2.0696152,-2.162046 1.8993,-1.791493 7.977904,-2.554918 5.993308,-0.752712 -5.711683,-4.87921 2.320351,-6.49908 1.540404,-0.30981 2.604746,-0.343991 3.375,-0.25 -0.39458,-0.196789 -0.921428,-0.315535 -1.71875,-0.3125 z m 12.165403,1.459597 c -4.426223,3.102647 -6.659448,2.576306 -7.330806,2.636374 2.347136,1.425189 6.028649,-0.986607 8.839039,-2.001571 -0.372159,-0.4366 -1.190982,-0.671089 -1.508233,-0.634803 z m 5.49908,10.559359 c -0.750696,0.03293 -1.476779,0.507214 -2.125,1.40625 -0.450278,0.624505 -1.079514,1.058809 -1.520527,1.141735 0.739833,0.49794 1.720298,0.218127 2.520527,-0.891735 0.685262,-0.95041 1.167648,-1.393014 1.962738,-1.375 -0.372227,-0.201683 -0.463615,-0.297664 -0.837738,-0.28125 z m -7.191827,6.895106 c 2.317157,1.459441 -1.192349,3.30526 0.371094,4.960938 0.319437,0.338282 0.662211,0.365011 1.382813,0.359375 -0.143146,-0.07936 -0.330623,-0.07493 -0.4375,-0.195313 -1.476362,-1.662894 1.484342,-3.565639 -0.0078,-4.570312 -0.397321,-0.267518 -0.802684,-0.503372 -1.308594,-0.554688 z m -21.425781,2.148438 c 0.365726,0.248311 0.915717,1.067741 1.109375,1.78125 1.080786,3.982032 1.175794,5.875301 3.8125,6.078125 -1.71993,-0.716854 -1.887359,-2.419552 -2.8125,-5.828125 -0.344798,-1.270368 -1.287267,-2.03746 -2.109375,-2.03125 z"
                 style="fill:#ffffff;fill-opacity:1;fill-rule:evenodd;stroke:none"
                 id="path2817"
                 inkscape:connector-curvature="0" />
            </g>
          </g>
          <g
             id="text3043"
             style="font-size:11.5px;font-style:normal;font-variant:normal;font-weight:bolder;font-stretch:normal;line-height:125%;letter-spacing:0px;word-spacing:0px;fill:#000000;fill-opacity:1;stroke:none;font-family:Linux Libertine O;-inkscape-font-specification:Sans Bold"
             transform="matrix(0.9781476,-0.20791169,0.41582256,0.93395478,0.00790443,0.78677622)">
            <path
               inkscape:connector-curvature="0"
               id="path3005"
               d="m 13.929328,20.7375 c 0.4945,0.069 0.437,0.322001 0.092,0.989 l -0.6095,1.15 -0.0575,-0.0575 -0.5635,-1.1615 c -0.3105,-0.655499 -0.3565,-0.851 0.1265,-0.92 0.069,-0.069 0.069,-0.3105 0,-0.3795 -0.414,0.0115 -0.598,0.023 -1.0465,0.023 -0.46,0 -0.6555,-0.0115 -1.0235,-0.023 -0.069,0.069 -0.0575,0.3105 0.0115,0.3795 0.4945,0.069 0.5865,0.230001 0.966,1.0465 l 0.966,2.0585 -1.2765,2.6105 -0.0575,0 -2.1045,-4.7955 c -0.2874997,-0.655499 -0.2529993,-0.8395 0.4715,-0.92 0.069,-0.069 0.069,-0.3105 0,-0.3795 -0.5404994,0.0115 -0.8280004,0.023 -1.2765,0.023 -0.4599995,0 -0.6555005,-0.0115 -1.196,-0.023 -0.069,0.069 -0.0575,0.3105 0.0115,0.3795 0.6554994,0.0575 0.6785004,0.230001 1.0235,1.0465 l 2.507,5.888 c 0.069,0.1725 0.1495,0.2645 0.2645,0.2645 0.1265,0 0.207,-0.092 0.276,-0.2645 l 1.6905,-3.335 1.5525,3.335 c 0.0575,0.1725 0.1495,0.2645 0.2645,0.2645 0.1265,0 0.1955,-0.092 0.276,-0.2645 l 2.714,-5.865 c 0.2415,-0.528999 0.379501,-0.9775 1.1385,-1.0695 0.069,-0.069 0.069,-0.3105 0,-0.3795 -0.46,0.0115 -0.7475,0.023 -1.012,0.023 -0.2645,0 -0.598001,-0.0115 -1.1385,-0.023 -0.069,0.069 -0.069,0.3105 0,0.3795 0.747499,0.0575 0.759,0.368001 0.4945,0.989 l -2.185,4.7265 -0.0575,0 -1.472,-3.036 0.8395,-1.61 c 0.2875,-0.528999 0.540501,-0.9775 1.1385,-1.0695 0.069,-0.069 0.069,-0.3105 0,-0.3795 -0.2875,0.0115 -0.575,0.023 -0.8395,0.023 -0.2645,0 -0.483,-0.0115 -0.9085,-0.023 -0.069,0.069 -0.069,0.3105 0,0.3795" />
          </g>
        </g>
      </g>
    </g>
  </g>
</svg>
